<?xml version="1.0" standalone="no"?>
<!DOCTYPE svg PUBLIC "-//W3C//DTD SVG 20010904//EN"
 "http://www.w3.org/TR/2001/REC-SVG-20010904/DTD/svg10.dtd">
<svg version="1.0" xmlns="http://www.w3.org/2000/svg"
 width="1080.000000pt" height="1080.000000pt" viewBox="0 0 1080.000000 1080.000000"
 preserveAspectRatio="xMidYMid meet">

<g transform="translate(0.000000,1080.000000) scale(0.100000,-0.100000)"
fill="#000000" stroke="none">
<path d="M0 5400 l0 -5400 5400 0 5400 0 0 5400 0 5400 -5400 0 -5400 0 0
-5400z m7350 2735 l32 -370 -1250 -2190 c-688 -1205 -1249 -2191 -1248 -2192
1 -1 125 9 276 23 934 84 2631 234 2648 234 17 0 21 -8 26 -47 13 -109 88
-994 85 -998 -3 -2 -965 -90 -2139 -195 -1174 -105 -2175 -195 -2225 -200 -49
-5 -92 -7 -95 -4 -3 3 -21 189 -41 412 l-37 407 1253 2190 c690 1204 1253
2191 1251 2192 -1 1 -629 -54 -1395 -123 -767 -68 -1395 -123 -1397 -122 -5 6
-95 1040 -90 1045 2 3 971 91 2153 197 l2148 192 7 -41 c4 -22 21 -207 38
-410z"/>
</g>
</svg>
